# xmcd
# Copyright (C) 1995-1998 Ti Kan
#
# Track frame offsets:
#       150
#       15257
#       32310
#       49137
#       64537
#       87547
#       100335
#       114710
#       129675
#       152600
#       167100
#
# Disc length: 2927 seconds
#
# Revision: 0
# Processed by: cddbd v1.4PL0 Copyright (c) Steve Scherf et al.
# Submitted via: CD-Transfer v1.0
#
DISCID=840b6d0b
DTITLE=Stereobabies - Stereobabies
DYEAR=2002
DGENRE=
TTITLE0=Häx
TTITLE1=Dr Perfekt Tag
TTITLE2=Star
TTITLE3=Es Bitzeli Meh
TTITLE4=Für Di
TTITLE5=Modi
TTITLE6=Gameboy
TTITLE7=Pierre
TTITLE8=Aus Wärs Nie Angers Gsi
TTITLE9=Gas
TTITLE10=Tanze
EXTD=
EXTT0=
EXTT1=
EXTT2=
EXTT3=
EXTT4=
EXTT5=
EXTT6=
EXTT7=
EXTT8=
EXTT9=
EXTT10=
PLAYORDER=
